<?xml version="1.0" standalone="no"?>
<!DOCTYPE svg PUBLIC "-//W3C//DTD SVG 20010904//EN"
 "http://www.w3.org/TR/2001/REC-SVG-20010904/DTD/svg10.dtd">
<svg version="1.0" xmlns="http://www.w3.org/2000/svg"
 width="168.000000pt" height="83.000000pt" viewBox="0 0 168.000000 83.000000"
 preserveAspectRatio="xMidYMid meet">

<g transform="translate(0.000000,83.000000) scale(0.100000,-0.100000)"
fill="#currentColor" stroke="none">
<path d="M787 737 c-26 -46 -47 -87 -47 -92 0 -4 20 -41 45 -82 25 -40 45 -78
45 -83 0 -6 5 -10 10 -10 6 0 10 4 10 10 0 5 20 43 45 83 25 41 45 78 45 82 0
13 -93 175 -100 175 -4 0 -27 -38 -53 -83z"/>
<path d="M674 548 c-3 -12 -24 -50 -45 -85 -22 -35 -39 -66 -39 -68 0 -3 45
-5 100 -5 55 0 100 3 100 6 0 4 -20 39 -45 78 -25 40 -45 78 -45 84 0 20 -18
13 -26 -10z"/>
<path d="M980 560 c0 -8 -20 -46 -45 -86 -25 -39 -45 -74 -45 -78 0 -3 45 -6
100 -6 55 0 100 2 100 5 0 2 -18 34 -40 70 -22 36 -40 69 -40 74 0 5 -7 14
-15 21 -12 10 -15 10 -15 0z"/>
<path d="M10 225 c0 -8 9 -15 20 -15 17 0 19 -8 22 -67 2 -42 8 -68 16 -71 9
-3 12 15 12 67 0 70 0 71 26 71 16 0 24 5 22 13 -3 7 -27 13 -61 15 -46 2 -57
0 -57 -13z"/>
<path d="M180 156 c0 -71 3 -86 15 -86 13 0 15 14 13 82 -2 54 -7 83 -15 86
-10 3 -13 -18 -13 -82z"/>
<path d="M286 183 c-12 -96 -11 -106 2 -110 7 -3 12 6 13 24 1 15 4 39 8 53
l7 25 19 -32 c11 -18 22 -33 26 -33 4 0 16 14 27 32 l20 32 7 -47 c7 -46 18
-66 29 -49 2 4 -1 43 -7 86 l-12 79 -30 -47 c-16 -25 -31 -46 -34 -46 -4 0
-19 20 -34 45 -16 25 -30 45 -31 45 -2 0 -6 -26 -10 -57z"/>
<path d="M517 233 c-4 -3 -7 -42 -7 -85 l0 -78 50 0 c38 0 50 4 50 15 0 10
-11 15 -35 15 -28 0 -35 4 -35 19 0 15 8 21 33 23 17 2 32 8 32 13 0 6 -15 11
-32 13 -25 2 -33 8 -33 23 0 15 7 19 35 19 24 0 35 5 35 15 0 11 -11 15 -43
15 -24 0 -47 -3 -50 -7z"/>
<path d="M696 227 c-29 -21 -17 -59 26 -82 21 -11 37 -24 35 -29 -5 -14 -56
-26 -63 -15 -3 5 -10 6 -16 3 -15 -10 20 -34 47 -34 27 0 58 33 53 57 -2 10
-20 27 -41 38 -20 11 -37 25 -37 31 0 16 23 24 49 17 24 -6 29 12 5 21 -24 9
-38 7 -58 -7z"/>
<path d="M847 233 c-4 -3 -7 -42 -7 -85 0 -59 3 -79 13 -76 6 3 13 17 15 31 3
22 8 27 31 27 61 0 81 79 25 100 -29 12 -68 13 -77 3z m78 -48 c0 -14 -8 -21
-27 -23 -24 -3 -28 0 -28 23 0 23 4 26 28 23 19 -2 27 -9 27 -23z"/>
<path d="M1014 227 c-10 -27 1 -150 14 -155 8 -2 12 8 12 32 0 36 0 36 45 36
45 0 45 0 45 -35 0 -19 5 -35 10 -35 6 0 10 35 10 85 0 82 -15 119 -22 53 -3
-31 -6 -33 -45 -36 l-43 -3 0 35 c0 35 -16 49 -26 23z"/>
<path d="M1222 158 l3 -83 48 0 c56 0 68 19 15 23 -30 3 -38 7 -38 23 0 14 7
19 30 19 20 0 30 5 30 15 0 10 -10 15 -30 15 -23 0 -30 4 -30 20 0 16 7 20 35
20 24 0 35 5 35 15 0 11 -12 15 -50 15 l-51 0 3 -82z"/>
<path d="M1390 154 c0 -64 3 -85 13 -82 6 3 14 19 17 36 6 35 16 32 43 -10 18
-29 37 -37 37 -16 0 6 -7 19 -16 29 -15 17 -15 20 4 44 11 14 18 34 15 44 -5
21 -50 41 -89 41 -23 0 -24 -2 -24 -86z m84 40 c9 -22 -1 -34 -30 -34 -19 0
-24 5 -24 25 0 20 5 25 24 25 13 0 27 -7 30 -16z"/>
<path d="M1570 155 l0 -86 47 3 c56 4 73 28 19 28 -29 0 -36 4 -36 20 0 16 7
20 30 20 20 0 30 5 30 15 0 10 -10 15 -30 15 -23 0 -30 5 -30 19 0 15 8 21 33
23 49 5 38 23 -15 26 l-48 3 0 -86z"/>
</g>
</svg>
